<svg width="338" height="32" viewBox="0 0 338 32" fill="none" xmlns="http://www.w3.org/2000/svg">
<path fill-rule="evenodd" clip-rule="evenodd" d="M69.4561 6.75068C69.4561 2.89315 72.3501 0 76.4719 0C78.3321 0 79.7847 0.489004 80.1222 0.602629L80.1552 0.613698V2.36712C79.9798 2.27945 78.3136 1.57808 76.5596 1.57808C73.5779 1.57808 71.3855 3.68219 71.3855 6.48767C71.3855 9.38082 73.4902 11.3973 76.5596 11.3973C78.5766 11.3973 79.9798 10.8712 80.0675 10.7836V12.6247C79.9798 12.7123 78.5766 13.1507 76.3842 13.1507C71.5609 13.1507 69.4561 9.46849 69.4561 6.75068ZM11.6637 0.175415H9.90978V7.71514C9.90978 10.6083 8.24353 11.485 6.2265 11.485C3.77098 11.485 2.54322 10.1699 2.54322 7.71514V0.175415H0.613881V8.06582C0.613881 11.5727 3.0694 13.1508 6.1388 13.1508C9.64669 13.1508 11.6637 11.222 11.6637 8.06582V0.175415ZM25.1691 0.175415H23.4151V10.0823L15.6978 0.175415H14.2069V13.0631H15.8732V3.15623L23.5905 13.0631H25.1691V0.175415ZM28.1508 0.175415H29.9924V13.0631H28.1508V0.175415ZM41.0423 0.175415H31.7464V1.7535H35.5174V13.0631H37.359V1.7535H41.0423V0.175415ZM42.7085 0.175415H50.0751V1.7535H44.5502V5.61103H49.812V7.18911H44.5502V11.3973H50.1628V13.0631H42.7085V0.175415ZM56.8277 0.175415H52.5306V13.0631H56.8277C61.3003 13.0631 63.6681 9.90692 63.6681 6.66308C63.6681 3.59459 61.5634 0.175415 56.8277 0.175415ZM54.3722 11.3973V1.7535H56.5647C60.0725 1.7535 61.7388 4.03295 61.7388 6.57541C61.7388 9.29322 59.8971 11.3973 56.5647 11.3973H54.3722ZM97.1685 0.175415H99.0101V11.3973H104.36V13.0631H97.1685V0.175415ZM123.916 0.175415H119.97V13.0631H121.811V7.45212H124.091L127.599 13.0631H129.792C128.915 11.8357 125.933 7.01377 125.933 7.01377C126.196 6.9261 128.126 6.22473 128.126 3.76993C128.126 1.49048 126.547 0.175415 123.916 0.175415ZM121.811 5.87404V1.7535H123.653C125.407 1.7535 126.196 2.63021 126.196 3.8576C126.196 4.90966 125.582 5.96171 123.653 5.96171H121.811V5.87404ZM87.9602 0C84.1892 0 81.1198 2.98082 81.1198 6.57534C81.1198 10.2575 84.1015 13.1507 87.9602 13.1507C91.7312 13.1507 94.8006 10.1699 94.8006 6.57534C94.8006 2.98082 91.7312 0 87.9602 0ZM87.9602 11.4849C85.2416 11.4849 83.0492 9.29315 83.0492 6.57534C83.0492 3.85753 85.2416 1.66575 87.9602 1.66575C90.6788 1.66575 92.8713 3.85753 92.8713 6.57534C92.8713 9.29315 90.7665 11.4849 87.9602 11.4849ZM104.272 6.57534C104.272 2.98082 107.341 0 111.112 0C114.883 0 117.865 2.98082 117.953 6.57534C117.953 10.1699 114.883 13.1507 111.112 13.1507C107.254 13.1507 104.272 10.2575 104.272 6.57534ZM106.201 6.57534C106.201 9.29315 108.394 11.4849 111.112 11.4849C113.831 11.4849 116.023 9.29315 116.023 6.57534C116.023 3.85753 113.831 1.66575 111.112 1.66575C108.394 1.66575 106.201 3.85753 106.201 6.57534ZM134.966 0C132.423 0 130.844 1.49041 130.844 3.41918C130.844 5.1726 131.809 6.13698 133.212 6.75068C133.332 6.81058 133.534 6.90117 133.765 7.00498V7.00504C134.21 7.20511 134.765 7.45425 135.054 7.62739L135.129 7.66494C135.845 8.02139 137.071 8.63141 137.071 9.7315C137.071 10.6082 136.194 11.4849 134.44 11.4849C132.686 11.4849 131.809 10.7836 131.633 10.6082L130.756 12.1863C130.776 12.1959 130.806 12.215 130.847 12.2415V12.2416C131.181 12.4561 132.264 13.1507 134.527 13.1507C136.808 13.1507 139 12.0986 139 9.55616C139 7.36438 136.983 6.4 135.843 5.87397C135.537 5.75176 135.146 5.54437 134.819 5.37054V5.3704C134.676 5.29488 134.546 5.2257 134.44 5.1726C133.563 4.73424 132.861 4.20822 132.861 3.24383C132.861 2.36712 133.65 1.57808 135.141 1.57808C136.632 1.57808 137.509 2.10411 137.685 2.27945L138.211 0.701369C138.17 0.701369 138.078 0.66373 137.936 0.605891C137.465 0.414053 136.448 0 134.966 0ZM15.7855 18.937H22.6259V20.6027H17.6271V24.2849H22.6259V25.863H17.6271V31.8247H15.7855V18.937ZM6.84038 18.8493C3.0694 18.8493 0 21.8301 0 25.4247C0 29.1069 2.9817 32 6.84038 32C10.6114 32 13.6808 29.0192 13.6808 25.4247C13.6808 21.7425 10.6991 18.8493 6.84038 18.8493ZM6.84038 30.3343C4.12177 30.3343 1.92934 28.1425 1.92934 25.4247C1.92934 22.7069 4.12177 20.5151 6.84038 20.5151C9.55899 20.5151 11.7514 22.7069 11.7514 25.4247C11.7514 28.1425 9.64669 30.3343 6.84038 30.3343ZM58.2309 18.937H59.9848V31.8247H58.4063L50.6889 21.9178V31.8247H48.935V18.937H50.5135L58.2309 28.9315V18.937ZM116.462 18.937H114.708V28.9315L106.903 18.937H105.412V31.8247H107.166V21.9178L114.796 31.8247H116.462V18.937ZM70.7716 18.937H80.0675V20.6027H76.3842V31.8247H74.5426V20.6027H70.7716V18.937ZM90.4157 18.937H81.1198V20.6027H84.8908V31.8247H86.7325V20.6027H90.4157V18.937ZM39.376 18.937H46.6549V20.6027H41.2176V24.4603H46.4795V26.0384H41.2176V30.2466H46.8303V31.8247H39.376V18.937ZM69.6316 18.937H62.3527V31.8247H69.8069V30.2466H64.1943V26.0384H69.4562V24.4603H64.1943V20.6027H69.6316V18.937ZM90.1526 25.4247C90.1526 21.8301 93.222 18.8493 96.993 18.8493C100.764 18.8493 103.746 21.7425 103.833 25.4247C103.833 29.0192 100.764 32 96.993 32C93.1343 32 90.1526 29.1069 90.1526 25.4247ZM92.082 25.4247C92.082 28.1425 94.2744 30.3343 96.993 30.3343C99.7116 30.3343 101.904 28.1425 101.904 25.4247C101.904 22.7069 99.7116 20.5151 96.993 20.5151C94.2744 20.5151 92.082 22.7069 92.082 25.4247ZM32.711 18.937H28.5016V31.8247H32.8864C36.1312 31.8247 37.2713 29.9836 37.2713 28.4055C37.2713 25.6877 35.0789 25.1616 34.9035 25.1616C34.9153 25.1557 34.9336 25.1478 34.9574 25.1375V25.1374C35.2853 24.9952 36.6574 24.3996 36.6574 22.3562C36.6574 20.5151 35.4297 18.937 32.711 18.937ZM30.3432 24.5479V20.6027H32.448C33.9388 20.6027 34.8158 21.3041 34.8158 22.5315C34.8158 23.8466 33.8511 24.5479 32.448 24.5479H30.3432ZM30.3432 30.2466V26.126H32.7987C34.6404 26.126 35.4297 27.0027 35.4297 28.2301C35.4297 29.1945 34.9035 30.2466 32.7987 30.2466H30.3432ZM117.953 30.5977C117.953 29.8961 118.567 29.2822 119.268 29.2822C119.97 29.2822 120.584 29.8961 120.584 30.5977C120.584 31.2992 119.97 31.9131 119.268 31.9131C118.567 31.9131 117.953 31.2992 117.953 30.5977Z" fill="black"/>
<path d="M172.716 12.2196L171.596 10.9973L167.872 14.8061L164.12 10.9973L163 12.2196L166.696 16L163 19.7804L164.12 21.0026L167.872 17.1938L171.596 21.0026L172.716 19.7804L169.02 16L172.716 12.2196Z" fill="black"/>
<path fill-rule="evenodd" clip-rule="evenodd" d="M266.264 12.1668V0H273.752V2.82559H269.385V12.1668H266.264Z" fill="#D01481"/>
<path fill-rule="evenodd" clip-rule="evenodd" d="M283.168 12.1668V7.40215H278.53V12.1668H275.411V0H278.53V4.54055H283.168V0H286.294V12.1668H283.168Z" fill="#D01481"/>
<path fill-rule="evenodd" clip-rule="evenodd" d="M304.407 12.1668V2.82559H300.766V0H311.2V2.82559H307.533V12.1668H304.407Z" fill="#D01481"/>
<path fill-rule="evenodd" clip-rule="evenodd" d="M296.167 12.1669V5.23299L291.203 12.1669H288.59V0.0020484H291.708V6.8619L296.6 0.0020484H299.295V12.1669H296.167Z" fill="#D01481"/>
<path fill-rule="evenodd" clip-rule="evenodd" d="M248.315 12.1668V4.93677L245.206 8.75692L242.085 4.93677V12.1668H238.967V0H242.044L245.206 4.18435L248.365 0H251.443V12.1668H248.315Z" fill="#D01481"/>
<path fill-rule="evenodd" clip-rule="evenodd" d="M261.895 12.1688L261.25 10.4619H256.397L255.744 12.1688H252.594L257.406 0H260.286L265.088 12.1688H261.895ZM257.372 7.89043H260.271L258.818 4.07229L257.372 7.89043Z" fill="#D01481"/>
<path fill-rule="evenodd" clip-rule="evenodd" d="M269.996 31.986C269.147 32.0036 268.302 31.8478 267.511 31.5276C266.721 31.2074 266 30.7293 265.391 30.1209C264.794 29.5505 264.317 28.8598 263.991 28.0921C263.666 27.3243 263.497 26.4958 263.497 25.6584C263.497 24.821 263.666 23.9926 263.991 23.2248C264.317 22.457 264.794 21.7664 265.391 21.1959C266.231 20.3871 267.26 19.8138 268.378 19.5309C269.497 19.2481 270.667 19.2654 271.777 19.581C272.266 19.7166 272.736 19.9185 273.173 20.1813C273.507 20.3925 273.826 20.6265 274.129 20.8817C274.349 21.0591 274.549 21.2604 274.726 21.4821L274.946 21.7682L272.945 23.9134L272.799 23.7133C272.682 23.5675 272.551 23.4335 272.409 23.3131C272.225 23.1468 272.03 22.995 271.824 22.8589C271.569 22.7077 271.298 22.5881 271.016 22.5027C270.687 22.4 270.346 22.3474 270.002 22.3466C269.572 22.3357 269.144 22.4132 268.744 22.5745C268.344 22.7358 267.979 22.9777 267.671 23.2858C267.364 23.594 267.119 23.9622 266.952 24.3688C266.785 24.7754 266.699 25.2122 266.699 25.6534C266.699 26.0947 266.785 26.5314 266.952 26.9381C267.119 27.3447 267.364 27.7129 267.671 28.021C267.979 28.3292 268.344 28.571 268.744 28.7323C269.144 28.8936 269.572 28.9711 270.002 28.9603C270.565 28.962 271.12 28.8348 271.629 28.5881C272.038 28.4087 272.411 28.1536 272.731 27.8356L273.13 27.3994L275.034 29.5306L274.968 29.6207C274.927 29.6827 274.87 29.7567 274.804 29.8408C274.623 30.0484 274.428 30.2418 274.219 30.4191C273.91 30.6949 273.577 30.9395 273.222 31.1495C272.779 31.3984 272.307 31.5906 271.818 31.7218C271.228 31.8926 270.617 31.9781 270.004 31.976L269.996 31.986Z" fill="#D01481"/>
<path fill-rule="evenodd" clip-rule="evenodd" d="M255.927 31.9859C254.146 31.9859 252.652 31.3696 251.484 30.1529C250.348 28.9614 249.711 27.3606 249.711 25.6934C249.711 24.0262 250.348 22.4254 251.484 21.2339C252.654 20.0192 254.146 19.4029 255.927 19.4029C257.708 19.4029 259.21 20.0192 260.368 21.2339C261.505 22.4254 262.141 24.0262 262.141 25.6934C262.141 27.3606 261.505 28.9614 260.368 30.1529C259.21 31.3696 257.706 31.9859 255.927 31.9859ZM255.927 22.3805C255.526 22.3726 255.127 22.4518 254.757 22.6128C254.387 22.7738 254.055 23.0132 253.782 23.3151C253.239 23.982 252.941 24.8234 252.941 25.6924C252.941 26.5614 253.239 27.4028 253.782 28.0697C254.055 28.3715 254.388 28.6106 254.757 28.7717C255.127 28.9327 255.526 29.0119 255.927 29.0043C256.327 29.0143 256.724 28.936 257.091 28.7748C257.459 28.6135 257.788 28.3731 258.057 28.0697C258.615 27.4103 258.923 26.5661 258.923 25.6924C258.923 24.8187 258.615 23.9745 258.057 23.3151C257.788 23.0117 257.459 22.7713 257.091 22.61C256.724 22.4488 256.327 22.3705 255.927 22.3805Z" fill="#D01481"/>
<path fill-rule="evenodd" clip-rule="evenodd" d="M304.946 31.9859V22.7187H301.451V19.8731H311.593V22.7187H308.083V31.9859H304.946Z" fill="#D01481"/>
<path fill-rule="evenodd" clip-rule="evenodd" d="M246.764 31.9859L242.869 26.8891L242.103 26.8791V31.9859H238.967V19.8731H242.103V23.9974H243.008L246.087 19.8611L249.623 19.8731L245.539 25.4523L250.365 31.9859H246.764Z" fill="#D01481"/>
<path fill-rule="evenodd" clip-rule="evenodd" d="M290.95 31.9859V19.8731H299.573V22.7187H294.086V24.4457H298.935V27.1912H294.086V29.1423H299.573V31.9859H290.95Z" fill="#D01481"/>
<path fill-rule="evenodd" clip-rule="evenodd" d="M285.625 31.9859V24.8499L282.563 28.614L279.493 24.8499V31.9859H276.357V19.8731H279.452L282.563 24.0115L285.692 19.8611L288.769 19.8731V31.9859H285.625Z" fill="#D01481"/>
<path fill-rule="evenodd" clip-rule="evenodd" d="M313.479 31.9859V19.8731H316.615V26.6389L321.432 19.8611L324.128 19.8731V31.9859H320.992V25.1501L316.084 31.9999L313.479 31.9859Z" fill="#D01481"/>
<path fill-rule="evenodd" clip-rule="evenodd" d="M334.116 31.9859L330.219 26.8891L329.452 26.8791V31.9859H326.316V19.8731H329.452V23.9974H330.359L333.437 19.8611L336.973 19.8731L332.891 25.4523L337.716 31.9859H334.116Z" fill="#D01481"/>
<path fill-rule="evenodd" clip-rule="evenodd" d="M196.716 9.68944C196.723 7.12106 197.72 4.6599 199.491 2.84415C201.261 1.0284 203.66 0.00581002 206.164 0H227.967V4.92476H206.164C204.935 4.93418 203.759 5.43913 202.889 6.33059C202.02 7.22205 201.528 8.4285 201.518 9.68944L201.493 17.9541C201.391 19.0143 200.951 20.0104 200.241 20.7872C199.53 21.564 198.589 22.0778 197.564 22.2485L196.716 22.3826V9.68944Z" fill="#D01481"/>
<path fill-rule="evenodd" clip-rule="evenodd" d="M196.716 32V27.0752H218.527C219.756 27.0689 220.933 26.5647 221.802 25.6723C222.671 24.78 223.16 23.5717 223.165 22.3106V14.4662C223.172 13.3284 223.572 12.2299 224.294 11.3664C225.016 10.503 226.014 9.9307 227.109 9.75151L227.959 9.61944V22.3106C227.955 24.8784 226.959 27.3399 225.19 29.1559C223.421 30.972 221.022 31.9947 218.519 32H196.716Z" fill="#D01481"/>
<path fill-rule="evenodd" clip-rule="evenodd" d="M217.4 22.2124C217.4 22.2124 218.282 17.9661 215.278 17.2477C215.845 17.2265 216.407 17.1344 216.952 16.9735C219.058 16.3111 219.245 14.4881 219.292 12.451C219.317 11.0942 219.228 9.78948 219.228 9.78948C217.862 9.96357 216.043 10.0676 214.777 10.5339C213.416 11.0262 212.526 11.9647 212.319 13.7237C212.124 11.9647 211.225 11.0262 209.87 10.5319C208.596 10.0656 206.774 9.96157 205.419 9.78748C205.419 9.78748 205.329 11.0922 205.353 12.449C205.394 14.4861 205.573 16.3091 207.681 16.9715C208.229 17.1324 208.793 17.2244 209.363 17.2457C206.351 17.9641 207.225 22.2124 207.225 22.2124L208.516 22.0764C210.346 21.8763 211.637 21.7722 212.314 19.2428C212.99 21.7722 214.281 21.8843 216.119 22.0764L217.4 22.2124Z" fill="#D01481"/>
</svg>
