<svg width="163" height="23" viewBox="0 0 163 23" fill="none" xmlns="http://www.w3.org/2000/svg">
<g clip-path="url(#clip0_1_80)">
<path d="M72.2989 3.63317C73.8111 2.53317 75.5952 1.85624 77.4643 1.68701V4.75009C76.2579 4.9024 75.1194 5.35932 74.1339 6.08701C72.9105 7.00086 71.993 8.27009 71.5512 9.72547C71.1094 11.1809 71.1434 12.7378 71.6532 14.1762C72.1629 15.6147 73.1314 16.8501 74.4058 17.6962C75.6802 18.5424 77.1924 18.9655 78.7216 18.8978C80.2509 18.8301 81.7121 18.2716 82.9015 17.307C84.091 16.3424 84.9235 15.0224 85.2973 13.5501C85.5522 12.5178 85.5862 11.4516 85.3823 10.4193L87.965 8.3547V8.33778C88.6617 10.2501 88.7636 12.3316 88.2709 14.3116C87.7271 16.427 86.5377 18.3055 84.8386 19.6762C83.1394 21.047 81.0495 21.8593 78.8746 21.9609C76.6997 22.0624 74.5247 21.4701 72.7236 20.2516C70.9055 19.0332 69.5292 17.2732 68.7986 15.2255C68.068 13.1778 68.017 10.9439 68.6457 8.8624C69.2574 6.76393 70.5487 4.93624 72.2989 3.63317Z" fill="#FCCA00"/>
<path d="M86.011 5.07162L86.028 5.10546L84.2948 7.83008C83.6661 6.89931 82.8336 6.13777 81.8481 5.57931V11.7901C81.8481 13.7024 80.3018 15.2424 78.3818 15.2424C76.4617 15.2424 74.9155 13.7024 74.9155 11.7901C74.9155 9.87777 76.4617 8.33777 78.3818 8.33777C79.0954 8.33777 79.7581 8.55777 80.3188 8.93008V1.82239C82.5617 2.26239 84.5497 3.43008 86.011 5.07162Z" fill="#FC3F1D"/>
<path d="M8.71664 19.4224H11.3843V4.1239H7.51025C3.6022 4.1239 1.54623 6.12082 1.54623 9.08236C1.54623 11.4347 2.66767 12.8224 4.68966 14.2439L1.18941 19.4224H4.07796L7.96902 13.6347L6.62669 12.7208C4.9955 11.6208 4.1969 10.7577 4.1969 8.91313C4.1969 7.28852 5.35232 6.18852 7.52724 6.18852H8.71664V19.4224ZM60.2519 19.6424C61.4583 19.6424 62.3248 19.4224 62.9705 18.9654V16.8162C62.3078 17.2731 61.5092 17.5608 60.4048 17.5608C58.5187 17.5608 57.7541 16.1054 57.7541 13.8208C57.7541 11.4177 58.7056 10.1824 60.4218 10.1824C61.4413 10.1824 62.4268 10.5377 62.9535 10.8593V8.65928C62.4098 8.35467 61.4243 8.13467 60.1329 8.13467C56.7686 8.13467 55.0355 10.5377 55.0355 13.9054C55.0525 17.5947 56.7516 19.6424 60.2519 19.6424ZM43.8211 18.6608V16.5285C43.0055 17.0701 41.6292 17.5608 40.3548 17.5608C38.4348 17.5608 37.7041 16.6639 37.6022 14.8193H43.94V13.4316C43.94 9.59005 42.2409 8.13467 39.6072 8.13467C36.3958 8.13467 34.8836 10.5716 34.8836 13.9224C34.8836 17.7808 36.7866 19.6424 40.1339 19.6424C41.8161 19.6424 43.0565 19.2024 43.8211 18.6608ZM19.7441 8.35467V12.7377H16.2269V8.35467H13.6102V19.4224H16.2439V14.8024H19.7611V19.4224H22.3948V8.35467H19.7441ZM34.2379 17.3408H33.0655V8.35467H25.4023V9.30236C25.4023 12.0101 25.2324 15.5131 24.2978 17.3577H23.4823V21.9608H25.912V19.4393H31.8081V21.9608H34.2379V17.3408ZM52.2149 19.4224H55.1884L50.9745 13.4485L54.6786 8.33775H52.028L48.3238 13.4485V8.35467H45.7071V19.4224H48.3408V13.9731L52.2149 19.4224ZM39.5562 10.1993C40.8646 10.1993 41.2554 11.2824 41.2554 12.6701V12.8901H37.5852C37.6532 11.1131 38.2988 10.1993 39.5562 10.1993ZM30.4318 17.3408H26.7276C27.4583 15.6654 27.6622 12.6531 27.6622 10.7408V10.4193H30.4488V17.3408H30.4318Z" fill="black"/>
<path d="M99.4173 19.4224H101.626L104.77 7.88082V19.4224H107.284V4.1239H103.818L100.692 15.3947L97.6162 4.1239H94.0819V19.4054H96.2738V7.8639L99.4173 19.4224ZM110.904 22.8239C113.35 22.8239 114.268 21.0808 115.015 18.8131L118.482 8.33775H115.933L113.486 16.647L111.039 8.33775H108.287L112.11 19.8793C111.821 20.4039 111.396 20.7424 110.666 20.7424C110.173 20.7424 109.765 20.5901 109.476 20.3024V22.4347C109.476 22.4516 109.867 22.8239 110.904 22.8239ZM122.305 17.5608C120.962 17.5608 119.637 17.0701 118.924 16.5454V18.6777C119.433 19.1008 120.708 19.6254 122.611 19.6254C125.414 19.6254 126.893 18.3731 126.893 16.1562C126.893 14.8531 126.077 13.9731 124.616 13.6685C125.992 13.2285 126.553 12.2639 126.553 11.0285C126.553 9.15006 125.074 8.11775 122.679 8.11775C120.963 8.11775 119.824 8.64236 119.195 9.04852V11.1808C119.909 10.7239 120.878 10.1824 122.305 10.1824C123.273 10.1824 123.902 10.6393 123.902 11.4516C123.902 12.3147 123.375 12.7716 122.288 12.7716H120.623V14.7516H122.288C123.63 14.7516 124.174 15.1408 124.174 16.1224C124.191 17.0193 123.545 17.5608 122.305 17.5608ZM128.677 8.35467V19.4224H132.67C135.252 19.4224 137.087 18.1024 137.087 15.5131C137.087 13.0424 135.456 11.7562 132.721 11.7562H131.31V8.37159H128.677V8.35467ZM138.056 8.35467V19.4224H140.69V8.35467H138.056ZM132.517 17.3408H131.31V13.8039H132.585C133.706 13.8039 134.369 14.3116 134.369 15.5808C134.369 16.8501 133.638 17.3408 132.517 17.3408ZM149.406 19.4224H152.38L148.166 13.4485L151.87 8.33775H149.219L145.515 13.4485V8.35467H142.882V19.4224H145.515V13.9731L149.406 19.4224ZM161.334 11.8747C161.334 9.1839 159.958 8.18544 157.188 8.18544C155.438 8.18544 154.079 8.72698 153.28 9.20082V11.3839C153.994 10.8593 155.54 10.2839 156.883 10.2839C158.14 10.2839 158.718 10.7239 158.718 11.9085V12.5177H158.293C154.266 12.5177 152.482 13.8377 152.482 16.0885C152.482 18.3393 153.858 19.5916 155.88 19.5916C157.426 19.5916 158.089 19.0839 158.599 18.5593H158.701C158.718 18.847 158.82 19.2193 158.905 19.4393H161.47C161.385 18.5424 161.334 17.6285 161.334 16.7316V11.8747ZM158.701 16.7824C158.378 17.2731 157.749 17.6624 156.832 17.6624C155.727 17.6624 155.166 17.0024 155.166 16.0039C155.166 14.7008 156.067 14.2439 158.327 14.2439H158.701V16.7824Z" fill="black"/>
</g>
<defs>
<clipPath id="clip0_1_80">
<rect width="162.609" height="22" fill="white" transform="translate(0 0.84082)"/>
</clipPath>
</defs>
</svg>
